<?xml version="1.0" encoding="utf-8"?>
<!-- Generator: Adobe Illustrator 18.1.1, SVG Export Plug-In . SVG Version: 6.00 Build 0)  -->
<svg version="1.1" id="Calque_1" xmlns="http://www.w3.org/2000/svg" xmlns:xlink="http://www.w3.org/1999/xlink" x="0px" y="0px"
	 viewBox="0 0 40 40" enable-background="new 0 0 40 40" xml:space="preserve">
<g>
	<path fill="#F4E8D7" stroke="#1D1D1B" stroke-width="0.2586" stroke-miterlimit="10" d="M8.8,19.3l-1.2-1.7l-1.3-1.9
		c0,0-0.9-4,2-4.1c0,0-3.5-4.2,0-7c0,0,5-2.5,6.8,1.9c0,0,3.2-9.7,14.1-5.2c0,0,6.9,4.7,3.3,12.5c0,0,3.9,1.6,0.3,4.3
		c0,0,0.9-0.2-0.3,2.8C32.3,20.9,17,24.3,8.8,19.3z"/>
	<path fill="#D8CABA" d="M8.1,18.1c0,0,9.4,4.5,24.7,0.7l-0.5,2.1C32.3,20.9,9.8,24,8.1,18.1z"/>
	<g>
		<path fill="#F00041" d="M23.4,17.5c0-1.7-1.4-3-3-3s-3,1.4-3,3c0,0.4,0.1,0.8,0.2,1.1h5.6C23.3,18.2,23.4,17.9,23.4,17.5z"/>
	</g>
	<ellipse cx="25" cy="11.6" rx="1.6" ry="1.6"/>
	<ellipse fill="#FFFFFF" cx="25.3" cy="11.1" rx="0.6" ry="0.6"/>
	<ellipse cx="15.8" cy="11.6" rx="1.6" ry="1.6"/>
	<ellipse fill="#FFFFFF" cx="16.1" cy="11.2" rx="0.6" ry="0.6"/>
	<g id="XMLID_1_">
		<g>
			<path fill="#999999" d="M33.3,19.5l-2,16.4c0,0-0.3,1.5-2.7,2.7l0.8-18C30.8,20.3,32.2,19.9,33.3,19.5z"/>
			<path fill="#FFFFFF" d="M29.4,20.5l-0.8,18c-0.7,0.4-1.6,0.7-2.8,0.9l0.3-18.6C27.2,20.8,28.3,20.7,29.4,20.5z"/>
			<path fill="#999999" d="M26.1,20.9l-0.3,18.6c-1,0.2-2.1,0.4-3.5,0.5l0.1-18.8C23.3,21.1,24.6,21.1,26.1,20.9z"/>
			<path fill="#FFFFFF" d="M22.4,21.1l-0.1,18.8c-0.6,0-1.2,0.1-1.8,0.1c0,0-0.6,0-1.6,0L18.8,21c0.7,0,1.5,0.1,2.4,0.1
				C21.2,21.1,21.6,21.1,22.4,21.1z"/>
			<path fill="#999999" d="M18.8,21l0.1,18.9c-0.9-0.1-2.1-0.2-3.3-0.4l-0.3-18.8C16.3,20.8,17.5,21,18.8,21z"/>
			<path fill="#FFFFFF" d="M15.3,20.7l0.3,18.8c-0.9-0.2-1.9-0.5-2.8-0.8l-1.3-18.7C12.4,20.2,13.7,20.5,15.3,20.7z"/>
			<path fill="#999999" d="M11.5,19.9l1.3,18.7c-1.4-0.6-2.6-1.4-3.2-2.7L8.2,18.4C8.2,18.4,9,19.2,11.5,19.9z"/>
		</g>
		<g>
		</g>
	</g>
</g>
</svg>
