<?xml version="1.0" encoding="utf-8"?>
<!-- Generator: Adobe Illustrator 18.1.1, SVG Export Plug-In . SVG Version: 6.00 Build 0)  -->
<svg version="1.1" id="Calque_1" xmlns="http://www.w3.org/2000/svg" xmlns:xlink="http://www.w3.org/1999/xlink" x="0px" y="0px"
	 viewBox="0 0 40 40" enable-background="new 0 0 40 40" xml:space="preserve">
<g>
	<path fill="#F4E8D7" stroke="#1D1D1B" stroke-width="0.2583" stroke-miterlimit="10" d="M9.1,19.3l-1.2-1.7l-1.3-1.9
		c0,0-0.9-4,2-4.1c0,0-3.5-4.2,0-7c0,0,5-2.5,6.7,1.8c0,0,3.2-9.7,14.1-5.2c0,0,6.9,4.7,3.3,12.5c0,0,3.9,1.6,0.3,4.3
		c0,0,0.9-0.2-0.3,2.8C32.6,20.9,17.3,24.3,9.1,19.3z"/>
	<path fill="#D8CABA" d="M8.5,18.1c0,0,9.4,4.5,24.7,0.7l-0.5,2.1C32.6,20.9,10.1,24,8.5,18.1z"/>
	<g id="XMLID_9_">
		<g>
			<path fill="#CE2731" d="M33.6,19.4l-2.1,16.4c0,0-0.3,1.5-2.8,2.7l0.9-18C31.1,20.2,32.5,19.9,33.6,19.4z"/>
			<path fill="#FFFFFF" d="M29.7,20.5l-0.9,18c-0.7,0.4-1.6,0.7-2.8,0.9l0.4-18.5C27.5,20.8,28.6,20.6,29.7,20.5z"/>
			<path fill="#F53340" d="M26.4,20.9L26,39.4c-1,0.2-2.1,0.4-3.5,0.4L22.7,21C23.6,21,24.9,21,26.4,20.9z"/>
			<path fill="#FFFFFF" d="M22.7,21l-0.2,18.8c-0.6,0-1.2,0-1.8,0c0,0-0.6,0-1.6-0.1l0-18.9c0.7,0,1.5,0.1,2.4,0.1
				C21.5,21,21.9,21,22.7,21z"/>
			<path fill="#F5323F" d="M19.1,20.9l0,18.9c-0.9-0.1-2.1-0.2-3.3-0.4l-0.2-18.8C16.6,20.7,17.8,20.9,19.1,20.9z"/>
			<path fill="#FFFFFF" d="M15.6,20.6l0.2,18.8c-0.9-0.2-1.9-0.5-2.7-0.8l-1.2-18.7C12.8,20.1,14,20.4,15.6,20.6z"/>
			<path fill="#F42836" d="M11.8,19.8L13,38.5c-1.4-0.6-2.5-1.4-3.2-2.7L8.6,18.3C8.6,18.3,9.3,19.1,11.8,19.8z"/>
		</g>
		<g>
		</g>
	</g>
	<g>
		<path fill="#F00041" d="M17.6,15.6c0,1.7,1.4,3,3,3c1.7,0,3-1.4,3-3c0-0.4-0.1-0.8-0.2-1.1h-5.6C17.7,14.8,17.6,15.2,17.6,15.6z"
			/>
	</g>
	<ellipse cx="25.3" cy="11.6" rx="1.6" ry="1.6"/>
	<ellipse fill="#FFFFFF" cx="25.6" cy="11.1" rx="0.6" ry="0.6"/>
	<ellipse cx="16.1" cy="11.6" rx="1.6" ry="1.6"/>
	<ellipse fill="#FFFFFF" cx="16.4" cy="11.2" rx="0.6" ry="0.6"/>
</g>
</svg>
