<?xml version="1.0" encoding="utf-8"?>
<!-- Generator: Adobe Illustrator 18.1.1, SVG Export Plug-In . SVG Version: 6.00 Build 0)  -->
<svg version="1.1" id="Calque_1" xmlns="http://www.w3.org/2000/svg" xmlns:xlink="http://www.w3.org/1999/xlink" x="0px" y="0px"
	 viewBox="0 0 40 40" enable-background="new 0 0 40 40" xml:space="preserve">
<g>
	<path fill="#F4E8D7" stroke="#1D1D1B" stroke-width="0.2581" stroke-miterlimit="10" d="M8,19.2l-1.2-1.7l-1.3-1.9c0,0-0.9-4,2-4.1
		c0,0-3.5-4.2,0-7c0,0,5-2.5,6.7,1.8c0,0,3.2-9.7,14.1-5.1c0,0,6.9,4.7,3.3,12.5c0,0,3.9,1.6,0.3,4.3c0,0,0.9-0.2-0.3,2.8
		C31.6,20.9,16.2,24.3,8,19.2z"/>
	<path fill="#D8CABA" d="M7.4,18.1c0,0,9.4,4.5,24.7,0.7l-0.5,2.1C31.6,20.9,9,24,7.4,18.1z"/>
	<g>
		<path fill="#F00041" d="M22.6,17.5c0-1.7-1.4-3-3-3c-1.7,0-3,1.4-3,3c0,0.4,0.1,0.8,0.2,1.1h5.6C22.5,18.2,22.6,17.8,22.6,17.5z"
			/>
	</g>
	<ellipse cx="24.2" cy="11.6" rx="1.6" ry="1.6"/>
	<ellipse fill="#FFFFFF" cx="24.5" cy="11.1" rx="0.6" ry="0.6"/>
	<ellipse cx="15" cy="11.6" rx="1.6" ry="1.6"/>
	<ellipse fill="#FFFFFF" cx="15.3" cy="11.2" rx="0.6" ry="0.6"/>
	<g id="XMLID_1_">
		<g>
			<path fill="#999999" d="M32.5,19.4l-2,16.4c0,0-0.3,1.5-2.7,2.7l0.8-18C30,20.2,31.4,19.9,32.5,19.4z"/>
			<path fill="#FFFFFF" d="M28.6,20.5l-0.8,18c-0.7,0.4-1.6,0.7-2.8,0.9l0.3-18.5C26.4,20.8,27.5,20.7,28.6,20.5z"/>
			<path fill="#999999" d="M25.3,20.9L25,39.4c-1,0.2-2.1,0.4-3.5,0.5l0.1-18.8C22.5,21.1,23.9,21,25.3,20.9z"/>
			<path fill="#FFFFFF" d="M21.6,21.1l-0.1,18.8c-0.6,0-1.2,0.1-1.8,0.1c0,0-0.6,0-1.6,0L18.1,21c0.7,0,1.5,0.1,2.4,0.1
				C20.4,21.1,20.9,21.1,21.6,21.1z"/>
			<path fill="#999999" d="M18.1,21l0.1,18.9c-0.9-0.1-2.1-0.2-3.3-0.4l-0.3-18.8C15.6,20.8,16.7,20.9,18.1,21z"/>
			<path fill="#FFFFFF" d="M14.5,20.7l0.3,18.8c-0.9-0.2-1.9-0.5-2.7-0.8l-1.3-18.7C11.7,20.2,13,20.5,14.5,20.7z"/>
			<path fill="#999999" d="M10.7,19.9l1.3,18.7C10.7,38,9.5,37.2,8.9,36L7.5,18.4C7.5,18.4,8.2,19.2,10.7,19.9z"/>
		</g>
		<g>
		</g>
	</g>
</g>
</svg>
