<?xml version="1.0" encoding="utf-8"?>
<!-- Generator: Adobe Illustrator 18.1.1, SVG Export Plug-In . SVG Version: 6.00 Build 0)  -->
<svg version="1.1" id="Capa_1" xmlns="http://www.w3.org/2000/svg" xmlns:xlink="http://www.w3.org/1999/xlink" x="0px" y="0px"
	 viewBox="-224 226.3 30 30.1" enable-background="new -224 226.3 30 30.1" xml:space="preserve">
<g>
	<g>
		<g>
			<path fill="#FFFFFF" d="M-211,243.8c-0.1-0.1-0.2-0.1-0.3-0.2c-0.3-0.1-0.6-0.1-1-0.1h0c-1.5,0-2.9,0.9-2.9,2c0,1.1,1.1,2,2.6,2
				c1.9,0,2.9-0.7,2.9-2c0-0.1,0-0.3,0-0.4C-209.8,244.6-210.3,244.3-211,243.8z"/>
			<path fill="#FFFFFF" d="M-212.1,239.9C-212.1,239.9-212.1,239.9-212.1,239.9c0.4,0,0.7-0.1,0.9-0.4c0.4-0.4,0.5-1.1,0.4-1.9
				c-0.2-1.3-1.1-2.4-2.1-2.4l0,0c-0.3,0-0.7,0.1-0.9,0.4c-0.4,0.4-0.5,1.1-0.4,1.8C-214,238.7-213.1,239.8-212.1,239.9
				L-212.1,239.9L-212.1,239.9z"/>
			<path fill="#FFFFFF" d="M-209,226.3c-8.3,0-15,6.7-15,15c0,8.3,6.7,15,15,15c8.3,0,15-6.7,15-15
				C-194,233.1-200.7,226.3-209,226.3z M-210.7,248.7c-0.6,0.2-1.2,0.2-1.8,0.2c-0.7,0-1.4-0.1-2-0.2c-1.2-0.3-2.2-0.9-2.6-1.7
				c-0.2-0.3-0.3-0.7-0.3-1c0-0.4,0.1-0.8,0.3-1.1c0.7-1.5,2.5-2.4,4.5-2.4c0,0,0,0,0.1,0c-0.2-0.3-0.2-0.6-0.2-0.9
				c0-0.2,0-0.3,0.1-0.5c-2.1,0-3.6-1.6-3.6-3.6c0-1.4,1.1-2.8,2.8-3.4c0.5-0.2,1-0.3,1.5-0.3h4.5c0.2,0,0.3,0.1,0.3,0.2
				c0,0.1,0,0.3-0.1,0.4l-1,0.7c-0.1,0-0.1,0.1-0.2,0.1h-0.4c0.5,0.6,0.7,1.3,0.7,2.2c0,1-0.5,1.9-1.4,2.6c-0.7,0.5-0.7,0.7-0.7,1
				c0,0.2,0.5,0.7,1,1.1c1.2,0.9,1.7,1.7,1.7,3.2C-207.8,246.8-209,248.1-210.7,248.7z M-200.7,241c0,0.2-0.2,0.4-0.4,0.4h-2.5v2.5
				c0,0.2-0.2,0.4-0.3,0.4h-0.7c-0.2,0-0.4-0.2-0.4-0.4v-2.5h-2.5c-0.2,0-0.4-0.2-0.4-0.4v-0.7c0-0.2,0.2-0.4,0.4-0.4h2.5v-2.5
				c0-0.2,0.2-0.4,0.4-0.4h0.7c0.2,0,0.3,0.2,0.3,0.4v2.5h2.5c0.2,0,0.4,0.2,0.4,0.4L-200.7,241L-200.7,241z"/>
		</g>
	</g>
</g>
</svg>
