<?xml version="1.0" encoding="utf-8"?>
<!-- Generator: Adobe Illustrator 18.1.1, SVG Export Plug-In . SVG Version: 6.00 Build 0)  -->
<svg version="1.1" id="Calque_1" xmlns="http://www.w3.org/2000/svg" xmlns:xlink="http://www.w3.org/1999/xlink" x="0px" y="0px"
	 viewBox="0 0 40 40" enable-background="new 0 0 40 40" xml:space="preserve">
<g>
	<path fill="#F4E8D7" stroke="#1D1D1B" stroke-width="0.2583" stroke-miterlimit="10" d="M8.8,19.5l-1.2-1.7l-1.3-1.9
		c0,0-0.9-4,2-4.1c0,0-3.5-4.2,0-7c0,0,5-2.5,6.7,1.8c0,0,3.2-9.7,14.1-5.2c0,0,6.9,4.7,3.3,12.5c0,0,3.9,1.6,0.3,4.3
		c0,0,0.9-0.2-0.3,2.8C32.3,21.1,17,24.5,8.8,19.5z"/>
	<path fill="#D8CABA" d="M8.2,18.3c0,0,9.4,4.5,24.7,0.7l-0.5,2.1C32.3,21.1,9.8,24.2,8.2,18.3z"/>
	<g id="XMLID_9_">
		<g>
			<path fill="#CE2731" d="M33.3,19.6L31.2,36c0,0-0.3,1.5-2.8,2.7l0.9-18C30.8,20.4,32.2,20.1,33.3,19.6z"/>
			<path fill="#FFFFFF" d="M29.4,20.7l-0.9,18c-0.7,0.4-1.6,0.7-2.8,0.9l0.4-18.5C27.2,21,28.3,20.8,29.4,20.7z"/>
			<path fill="#F53340" d="M26.1,21.1l-0.4,18.5c-1,0.2-2.1,0.4-3.5,0.4l0.2-18.8C23.3,21.2,24.6,21.2,26.1,21.1z"/>
			<path fill="#FFFFFF" d="M22.4,21.2L22.2,40c-0.6,0-1.2,0-1.8,0c0,0-0.6,0-1.6-0.1V21c0.7,0,1.5,0.1,2.4,0.1
				C21.2,21.2,21.6,21.2,22.4,21.2z"/>
			<path fill="#F5323F" d="M18.8,21.1V40c-0.9-0.1-2.1-0.2-3.3-0.4l-0.2-18.8C16.3,20.9,17.5,21.1,18.8,21.1z"/>
			<path fill="#FFFFFF" d="M15.3,20.8l0.2,18.8c-0.9-0.2-1.9-0.5-2.7-0.8l-1.2-18.7C12.5,20.3,13.7,20.6,15.3,20.8z"/>
			<path fill="#F42836" d="M11.5,20l1.2,18.7c-1.4-0.6-2.5-1.4-3.2-2.7L8.3,18.5C8.3,18.5,9,19.3,11.5,20z"/>
		</g>
	</g>
	<g>
		<path fill="#F00041" d="M17.3,15.8c0,1.7,1.4,3,3,3c1.7,0,3-1.4,3-3c0-0.4-0.1-0.8-0.2-1.1h-5.6C17.4,15,17.3,15.4,17.3,15.8z"/>
	</g>
	<ellipse cx="25" cy="11.8" rx="1.6" ry="1.6"/>
	<ellipse fill="#FFFFFF" cx="25.3" cy="11.3" rx="0.6" ry="0.6"/>
	<ellipse cx="15.8" cy="11.8" rx="1.6" ry="1.6"/>
	<ellipse fill="#FFFFFF" cx="16.1" cy="11.4" rx="0.6" ry="0.6"/>
</g>
</svg>
