<?xml version="1.0" encoding="utf-8"?>
<!-- Generator: Adobe Illustrator 18.1.1, SVG Export Plug-In . SVG Version: 6.00 Build 0)  -->
<svg version="1.1" id="Calque_1" xmlns="http://www.w3.org/2000/svg" xmlns:xlink="http://www.w3.org/1999/xlink" x="0px" y="0px"
	 viewBox="0 0 34 22" enable-background="new 0 0 34 22" xml:space="preserve">
<g>
	<g>
		<path fill="#DEB90C" d="M-0.3,0v7.3c2,0,3.6,1.6,3.6,3.7c0,2-1.6,3.7-3.6,3.7V22h5.5V0H-0.3z"/>
		<path fill="#DEB90C" d="M33.9,7.3C33.9,7.3,34,7.3,33.9,7.3L34,0H6.9v22H34v-7.3c0,0-0.1,0-0.1,0c-2,0-3.6-1.6-3.6-3.7
			C30.3,9,31.9,7.3,33.9,7.3z M16.8,17.1c-2.6-3.8-6.4-4.8-6.4-8.7c0-1.9,1.5-3.4,3.3-3.4c1.3,0,2.5,1.1,3,2.3
			c0.5-1.2,1.7-2.3,3-2.3c1.8,0,3.3,1.5,3.3,3.4C23.2,12.1,19.3,13.3,16.8,17.1z"/>
	</g>
</g>
<rect x="4.6" fill="#CC0606" width="2.3" height="22"/>
<path fill="#CC0606" d="M20,4.8c-1.4,0-2.6,1.1-3.2,2.3c-0.6-1.2-1.8-2.3-3.2-2.3c-1.9,0-3.5,1.6-3.5,3.5c0,3.9,4,5,6.7,8.9
	c2.6-3.9,6.7-5.1,6.7-8.9C23.5,6.4,22,4.8,20,4.8z"/>
</svg>
