<?xml version="1.0" encoding="utf-8"?>
<!-- Generator: Adobe Illustrator 18.1.1, SVG Export Plug-In . SVG Version: 6.00 Build 0)  -->
<svg version="1.1" id="Calque_1" xmlns="http://www.w3.org/2000/svg" xmlns:xlink="http://www.w3.org/1999/xlink" x="0px" y="0px"
	 viewBox="0 0 36.8 36.8" enable-background="new 0 0 36.8 36.8" xml:space="preserve">
<g>
	<path opacity="0.43" fill="#EDEDED" d="M18.4,0C8.2,0,0,8.2,0,18.4s8.2,18.4,18.4,18.4c10.2,0,18.4-8.2,18.4-18.4S28.5,0,18.4,0z
		 M0.8,18.4c0,0,16.5-17.9,34.4,0C35.1,18.4,18.7,36.3,0.8,18.4z"/>
	<path opacity="0.43" fill="#EDEDED" d="M18.4,13.6c-2.7,0-4.8,2.2-4.8,4.8s2.2,4.8,4.8,4.8c2.7,0,4.8-2.2,4.8-4.8
		S21,13.6,18.4,13.6z M18.4,20.1c-0.9,0-1.7-0.7-1.7-1.7s0.7-1.7,1.7-1.7c0.9,0,1.7,0.7,1.7,1.7S19.3,20.1,18.4,20.1z"/>
	<circle fill="#FFFFFF" cx="18.4" cy="18.4" r="1.7"/>
</g>
</svg>
