<?xml version="1.0" encoding="utf-8"?>
<!-- Generator: Adobe Illustrator 18.1.1, SVG Export Plug-In . SVG Version: 6.00 Build 0)  -->
<svg version="1.1" id="Calque_1" xmlns="http://www.w3.org/2000/svg" xmlns:xlink="http://www.w3.org/1999/xlink" x="0px" y="0px"
	 viewBox="0 0 18.6 18.6" enable-background="new 0 0 18.6 18.6" xml:space="preserve">
<path fill="#DEB90C" d="M18.6,7h-7l2.6-2.6c-1.3-1.3-3.1-2-4.9-2s-3.6,0.7-4.9,2s-2,3.1-2,4.9s0.7,3.6,2,4.9s3.1,2,4.9,2
	s3.6-0.7,4.9-2c0.1-0.1,0.2-0.2,0.3-0.3l1.8,1.5c-1.7,2-4.2,3.2-7,3.2C4.2,18.6,0,14.5,0,9.3S4.2,0,9.3,0c2.6,0,4.9,1,6.6,2.7
	L18.6,0V7z"/>
</svg>
